<svg id="visual" viewBox="0 0 900 600" width="900" height="600" xmlns="http://www.w3.org/2000/svg" xmlns:xlink="http://www.w3.org/1999/xlink" version="1.1"><path d="M0 81L10 75.5C20 70 40 59 60 51.5C80 44 100 40 120 41.7C140 43.3 160 50.7 180 52.2C200 53.7 220 49.3 240 49.5C260 49.7 280 54.3 300 57.2C320 60 340 61 360 57C380 53 400 44 420 44.2C440 44.3 460 53.7 480 61.5C500 69.3 520 75.7 540 77.3C560 79 580 76 600 73C620 70 640 67 660 62.5C680 58 700 52 720 54.7C740 57.3 760 68.7 780 68.3C800 68 820 56 840 52.2C860 48.3 880 52.7 890 54.8L900 57L900 0L890 0C880 0 860 0 840 0C820 0 800 0 780 0C760 0 740 0 720 0C700 0 680 0 660 0C640 0 620 0 600 0C580 0 560 0 540 0C520 0 500 0 480 0C460 0 440 0 420 0C400 0 380 0 360 0C340 0 320 0 300 0C280 0 260 0 240 0C220 0 200 0 180 0C160 0 140 0 120 0C100 0 80 0 60 0C40 0 20 0 10 0L0 0Z" fill="#2A3F65" stroke-linecap="round" stroke-linejoin="miter"></path></svg>