<svg id="visual" viewBox="0 0 960 540" width="960" height="540" xmlns="http://www.w3.org/2000/svg" xmlns:xlink="http://www.w3.org/1999/xlink" version="1.1"><path d="M0 68L14.5 67.3C29 66.7 58 65.3 87.2 59.2C116.3 53 145.7 42 174.8 45.2C204 48.3 233 65.7 262 70.8C291 76 320 69 349 65.3C378 61.7 407 61.3 436.2 61.8C465.3 62.3 494.7 63.7 523.8 57.5C553 51.3 582 37.7 611 32.2C640 26.7 669 29.3 698 30.5C727 31.7 756 31.3 785.2 29.7C814.3 28 843.7 25 872.8 26.3C902 27.7 931 33.3 945.5 36.2L960 39L960 0L945.5 0C931 0 902 0 872.8 0C843.7 0 814.3 0 785.2 0C756 0 727 0 698 0C669 0 640 0 611 0C582 0 553 0 523.8 0C494.7 0 465.3 0 436.2 0C407 0 378 0 349 0C320 0 291 0 262 0C233 0 204 0 174.8 0C145.7 0 116.3 0 87.2 0C58 0 29 0 14.5 0L0 0Z" fill="#000" stroke-linecap="round" stroke-linejoin="miter"></path></svg>