<svg id="visual" viewBox="0 0 960 540" width="960" height="540" xmlns="http://www.w3.org/2000/svg" xmlns:xlink="http://www.w3.org/1999/xlink" version="1.1"><path d="M0 73L14.5 73.2C29 73.3 58 73.7 87.2 70.3C116.3 67 145.7 60 174.8 58.7C204 57.3 233 61.7 262 59.3C291 57 320 48 349 43.2C378 38.3 407 37.7 436.2 42.3C465.3 47 494.7 57 523.8 57.7C553 58.3 582 49.7 611 44C640 38.3 669 35.7 698 40.3C727 45 756 57 785.2 58.8C814.3 60.7 843.7 52.3 872.8 48.7C902 45 931 46 945.5 46.5L960 47L960 0L945.5 0C931 0 902 0 872.8 0C843.7 0 814.3 0 785.2 0C756 0 727 0 698 0C669 0 640 0 611 0C582 0 553 0 523.8 0C494.7 0 465.3 0 436.2 0C407 0 378 0 349 0C320 0 291 0 262 0C233 0 204 0 174.8 0C145.7 0 116.3 0 87.2 0C58 0 29 0 14.5 0L0 0Z" fill="#031029" stroke-linecap="round" stroke-linejoin="miter"></path></svg>