<svg id="visual" viewBox="0 0 960 540" width="960" height="540" xmlns="http://www.w3.org/2000/svg" xmlns:xlink="http://www.w3.org/1999/xlink" version="1.1"><path d="M0 494L9.3 488.8C18.7 483.7 37.3 473.3 56.2 471.3C75 469.3 94 475.7 112.8 475.7C131.7 475.7 150.3 469.3 169.2 469.2C188 469 207 475 225.8 482.2C244.7 489.3 263.3 497.7 282.2 495C301 492.3 320 478.7 338.8 472.2C357.7 465.7 376.3 466.3 395.2 465.7C414 465 433 463 451.8 466.2C470.7 469.3 489.3 477.7 508.2 479.7C527 481.7 546 477.3 564.8 473.3C583.7 469.3 602.3 465.7 621.2 472C640 478.3 659 494.7 677.8 498.8C696.7 503 715.3 495 734.2 490.8C753 486.7 772 486.3 790.8 484.2C809.7 482 828.3 478 847.2 479.3C866 480.7 885 487.3 903.8 485C922.7 482.7 941.3 471.3 950.7 465.7L960 460L960 541L950.7 541C941.3 541 922.7 541 903.8 541C885 541 866 541 847.2 541C828.3 541 809.7 541 790.8 541C772 541 753 541 734.2 541C715.3 541 696.7 541 677.8 541C659 541 640 541 621.2 541C602.3 541 583.7 541 564.8 541C546 541 527 541 508.2 541C489.3 541 470.7 541 451.8 541C433 541 414 541 395.2 541C376.3 541 357.7 541 338.8 541C320 541 301 541 282.2 541C263.3 541 244.7 541 225.8 541C207 541 188 541 169.2 541C150.3 541 131.7 541 112.8 541C94 541 75 541 56.2 541C37.3 541 18.7 541 9.3 541L0 541Z" fill="#000" stroke-linecap="round" stroke-linejoin="miter"></path></svg>