<svg width="256" height="95" viewBox="0 0 256 95" fill="none" xmlns="http://www.w3.org/2000/svg">
<path d="M24.9943 94H0.8125L32.2216 0.909088H62.1761L93.5852 94H69.4034L47.5398 24.3636H46.8125L24.9943 94ZM21.767 57.3636H72.3125V74.4545H21.767V57.3636Z" fill="url(#paint0_linear_0_3)"/>
<path d="M120.669 94L114.056 76.5493L121.053 57.7333H137.053L125.875 74.5013L137.309 94H120.669ZM99.2932 94V45.744L96.7332 44.208V40.24L110.429 38.1067H113.202V94H99.2932ZM157.323 90.2027L156.896 90.672C156.611 91.0133 156.17 91.4116 155.573 91.8667C155.004 92.3218 154.336 92.7769 153.568 93.232C152.828 93.6871 151.918 94.0711 150.837 94.384C149.756 94.7253 148.647 94.896 147.509 94.896C139.829 94.896 135.989 91.0987 135.989 83.504C135.989 82.0249 136.259 80.6738 136.8 79.4507C137.34 78.1991 138.037 77.1467 138.891 76.2933C139.744 75.44 140.768 74.6862 141.963 74.032C143.157 73.3493 144.352 72.8231 145.547 72.4533C146.77 72.0551 148.05 71.728 149.386 71.472C150.723 71.216 151.918 71.0453 152.97 70.96C154.023 70.8747 155.033 70.832 156 70.832V70.064C156 68.3289 155.531 67.1058 154.592 66.3947C153.682 65.6836 152.202 65.328 150.155 65.328C148.391 65.328 146.556 65.5413 144.651 65.968C142.745 66.3662 141.251 66.8498 140.17 67.4187L137.44 61.616C139.374 60.3644 141.891 59.2693 144.992 58.3307C148.092 57.3636 151.25 56.88 154.464 56.88C157.308 56.88 159.655 57.1644 161.504 57.7333C163.353 58.2738 164.846 59.2124 165.984 60.5493C167.15 61.8578 167.975 63.536 168.458 65.584C168.942 67.6036 169.184 70.1778 169.184 73.3067V90.672L170.378 94H158.688L157.323 90.2027ZM153.952 87.3867C154.322 87.3867 154.663 87.3156 154.976 87.1733C155.317 87.0027 155.573 86.8462 155.744 86.704C155.915 86.5333 156 86.448 156 86.448V76.208C154.265 76.208 152.885 76.6916 151.861 77.6587C150.837 78.5973 150.325 80.0622 150.325 82.0533C150.325 85.6089 151.534 87.3867 153.952 87.3867ZM195.419 94L188.806 76.5493L195.803 57.7333H211.803L200.625 74.5013L212.059 94H195.419ZM174.043 94V45.744L171.483 44.208V40.24L185.179 38.1067H187.952V94H174.043ZM213.641 94V66.3947L211.081 64.816V60.2507L220.254 57.7333H227.379V94H213.641ZM219.827 53.808L212.83 46.768V45.2747L219.827 38.2773H221.448L228.744 45.2747V46.768L221.448 53.808H219.827ZM247.574 94.7273C245.331 94.7273 243.407 93.9242 241.801 92.3182C240.195 90.7121 239.392 88.7879 239.392 86.5455C239.392 84.303 240.195 82.3788 241.801 80.7727C243.407 79.1667 245.331 78.3636 247.574 78.3636C249.816 78.3636 251.741 79.1667 253.347 80.7727C254.953 82.3788 255.756 84.303 255.756 86.5455C255.756 88.0303 255.377 89.3939 254.619 90.6364C253.892 91.8788 252.907 92.8788 251.665 93.6364C250.453 94.3636 249.089 94.7273 247.574 94.7273Z" fill="white"/>
<defs>
<linearGradient id="paint0_linear_0_3" x1="131.5" y1="-21" x2="131.5" y2="127" gradientUnits="userSpaceOnUse">
<stop offset="0.0322581" stop-color="#FF0000"/>
<stop offset="0.587838" stop-color="#0400D1"/>
</linearGradient>
</defs>
</svg>
